# xmcd
# 
# Track frame offsets:
#     150
#     18955
#     36992
#     49258
#     70235
#     87651
#     102452
#     124958
#     146321
#     163228
#     180324
#     202150
# 
# Disc length: 2832
# 
# Revision: 0
# Processed by: cddbd v1.5.2PL0 Copyright (c) Steve Scherf et al.
# Submitted via: fre:ac v1.1beta1pre4
# 
DISCID=b00b0e0c
DTITLE=Allen-Lamun Band - All in the Numbers
DYEAR=2013
DGENRE=Blues
TTITLE0=Delta Dream
TTITLE1=Never Know Blues
TTITLE2=Gasoline and Matches
TTITLE3=All in the Numbers
TTITLE4=Too Blue Not to Come Back Home
TTITLE5=World's Getting Closer to Home
TTITLE6=Long John Blues
TTITLE7=Conversation Song
TTITLE8=Tiltawhirl
TTITLE9=Better Off With the Blues
TTITLE10=Everyday Funk
TTITLE11=Everyday I Have the Blues
EXTD=
EXTT0=
EXTT1=
EXTT2=
EXTT3=
EXTT4=
EXTT5=
EXTT6=
EXTT7=
EXTT8=
EXTT9=
EXTT10=
EXTT11=
PLAYORDER=
